<svg version="1.1" viewBox="0.0 0.0 800.0 600.0" fill="none" stroke="none" stroke-linecap="square" stroke-miterlimit="10" xmlns:xlink="http://www.w3.org/1999/xlink" xmlns="http://www.w3.org/2000/svg"><clipPath id="p.0"><path d="m0 0l800.0 0l0 600.0l-800.0 0l0 -600.0z" clip-rule="nonzero"/></clipPath><g clip-path="url(#p.0)"><path fill="#000000" fill-opacity="0.0" d="m0 0l800.0 0l0 600.0l-800.0 0z" fill-rule="evenodd"/><path fill="#ff0000" d="m260.37668 112.17873c39.27954 22.29834 107.37445 188.67848 108.06036 208.91862c0.6859436 20.240173 -87.478546 -80.102356 -103.944855 -87.47768c-16.466324 -7.3753357 27.102356 50.944443 5.1469727 43.225723c-21.955383 -7.7187195 -135.33553 -62.093613 -136.87927 -89.53807c-1.543747 -27.444443 88.33728 -97.42694 127.61679 -75.1286z" fill-rule="evenodd"/><path stroke="#000000" stroke-width="3.0" stroke-linejoin="round" stroke-linecap="butt" d="m260.37668 112.17873c39.27954 22.29834 107.37445 188.67848 108.06036 208.91862c0.6859436 20.240173 -87.478546 -80.102356 -103.944855 -87.47768c-16.466324 -7.3753357 27.102356 50.944443 5.1469727 43.225723c-21.955383 -7.7187195 -135.33553 -62.093613 -136.87927 -89.53807c-1.543747 -27.444443 88.33728 -97.42694 127.61679 -75.1286z" fill-rule="evenodd"/><path fill="#3692ca" d="m259.34933 300.5142c-12.006561 -12.521454 -115.60849 -67.92302 -132.76117 -53.514435c-17.152664 14.408569 8.232719 114.751526 29.845146 139.96588c21.612427 25.214325 92.79703 22.126404 99.82941 11.32019c7.0323486 -10.806213 -58.149612 -59.862183 -57.635178 -76.15747c0.5144348 -16.295288 72.72835 -9.092743 60.721786 -21.614166z" fill-rule="evenodd"/><path stroke="#000000" stroke-width="3.0" stroke-linejoin="round" stroke-linecap="butt" d="m259.34933 300.5142c-12.006561 -12.521454 -115.60849 -67.92302 -132.76117 -53.514435c-17.152664 14.408569 8.232719 114.751526 29.845146 139.96588c21.612427 25.214325 92.79703 22.126404 99.82941 11.32019c7.0323486 -10.806213 -58.149612 -59.862183 -57.635178 -76.15747c0.5144348 -16.295288 72.72835 -9.092743 60.721786 -21.614166z" fill-rule="evenodd"/><path fill="#00c9b3" d="m413.22073 300.5142c12.006561 -12.521454 115.60849 -67.92302 132.76114 -53.514435c17.152649 14.408569 -8.232727 114.751526 -29.845154 139.96588c-21.612427 25.214325 -92.79703 22.126404 -99.82938 11.32019c-7.032379 -10.806213 58.149597 -59.862183 57.635162 -76.15747c-0.5144348 -16.295288 -72.72833 -9.092743 -60.72177 -21.614166z" fill-rule="evenodd"/><path stroke="#000000" stroke-width="3.0" stroke-linejoin="round" stroke-linecap="butt" d="m413.22073 300.5142c12.006561 -12.521454 115.60849 -67.92302 132.76114 -53.514435c17.152649 14.408569 -8.232727 114.751526 -29.845154 139.96588c-21.612427 25.214325 -92.79703 22.126404 -99.82938 11.32019c-7.032379 -10.806213 58.149597 -59.862183 57.635162 -76.15747c-0.5144348 -16.295288 -72.72833 -9.092743 -60.72177 -21.614166z" fill-rule="evenodd"/><path fill="#ffbc00" d="m404.43994 112.17898c-29.499573 9.262466 -48.69467 110.463264 -49.380585 130.7034c-0.6859131 20.240173 38.578735 -14.923004 45.265106 -9.262466c6.6863403 5.660553 -27.102356 50.944443 -5.147003 43.225723c21.955383 -7.7187195 135.33554 -62.093613 136.8793 -89.538055c1.5437012 -27.444443 -98.11725 -84.391075 -127.61682 -75.12861z" fill-rule="evenodd"/><path stroke="#000000" stroke-width="3.0" stroke-linejoin="round" stroke-linecap="butt" d="m404.43994 112.17898c-29.499573 9.262466 -48.69467 110.463264 -49.380585 130.7034c-0.6859131 20.240173 38.578735 -14.923004 45.265106 -9.262466c6.6863403 5.660553 -27.102356 50.944443 -5.147003 43.225723c21.955383 -7.7187195 135.33554 -62.093613 136.8793 -89.538055c1.5437012 -27.444443 -98.11725 -84.391075 -127.61682 -75.12861z" fill-rule="evenodd"/></g></svg>