<svg version="1.1" viewBox="0.0 0.0 800.0 600.0" fill="none" stroke="none" stroke-linecap="square" stroke-miterlimit="10" xmlns:xlink="http://www.w3.org/1999/xlink" xmlns="http://www.w3.org/2000/svg"><clipPath id="p.0"><path d="m0 0l800.0 0l0 600.0l-800.0 0l0 -600.0z" clip-rule="nonzero"/></clipPath><g clip-path="url(#p.0)"><path fill="#000000" fill-opacity="0.0" d="m0 0l800.0 0l0 600.0l-800.0 0z" fill-rule="evenodd"/><path fill="#ff0000" d="m324.09192 122.47006c39.27951 22.29834 107.37445 188.67847 108.06036 208.91864c0.6859131 20.240143 -87.47858 -80.10237 -103.944885 -87.47769c-16.466309 -7.3753357 27.102356 50.944458 5.1469727 43.225708c-21.955383 -7.7187195 -135.33551 -62.093597 -136.87926 -89.53804c-1.543747 -27.444443 88.337265 -97.42695 127.616806 -75.12862z" fill-rule="evenodd"/><path stroke="#000000" stroke-width="3.0" stroke-linejoin="round" stroke-linecap="butt" d="m324.09192 122.47006c39.27951 22.29834 107.37445 188.67847 108.06036 208.91864c0.6859131 20.240143 -87.47858 -80.10237 -103.944885 -87.47769c-16.466309 -7.3753357 27.102356 50.944458 5.1469727 43.225708c-21.955383 -7.7187195 -135.33551 -62.093597 -136.87926 -89.53804c-1.543747 -27.444443 88.337265 -97.42695 127.616806 -75.12862z" fill-rule="evenodd"/><path fill="#3692ca" d="m323.06454 310.8055c-12.006561 -12.521423 -115.608475 -67.923004 -132.76115 -53.514435c-17.152664 14.408569 8.232727 114.75156 29.845154 139.96588c21.612427 25.214355 92.79701 22.126434 99.82939 11.320221c7.032379 -10.806213 -58.149597 -59.862213 -57.635162 -76.15747c0.5144348 -16.295288 72.72833 -9.092743 60.72177 -21.614197z" fill-rule="evenodd"/><path stroke="#000000" stroke-width="3.0" stroke-linejoin="round" stroke-linecap="butt" d="m323.06454 310.8055c-12.006561 -12.521423 -115.608475 -67.923004 -132.76115 -53.514435c-17.152664 14.408569 8.232727 114.75156 29.845154 139.96588c21.612427 25.214355 92.79701 22.126434 99.82939 11.320221c7.032379 -10.806213 -58.149597 -59.862213 -57.635162 -76.15747c0.5144348 -16.295288 72.72833 -9.092743 60.72177 -21.614197z" fill-rule="evenodd"/><path fill="#00c9b3" d="m476.93594 310.8055c12.006561 -12.521423 115.60849 -67.923004 132.76114 -53.514435c17.15271 14.408569 -8.232727 114.75156 -29.845154 139.96588c-21.612427 25.214355 -92.797 22.126434 -99.82938 11.320221c-7.032379 -10.806213 58.149628 -59.862213 57.635162 -76.15747c-0.5144043 -16.295288 -72.72833 -9.092743 -60.72177 -21.614197z" fill-rule="evenodd"/><path stroke="#000000" stroke-width="3.0" stroke-linejoin="round" stroke-linecap="butt" d="m476.93594 310.8055c12.006561 -12.521423 115.60849 -67.923004 132.76114 -53.514435c17.15271 14.408569 -8.232727 114.75156 -29.845154 139.96588c-21.612427 25.214355 -92.797 22.126434 -99.82938 11.320221c-7.032379 -10.806213 58.149628 -59.862213 57.635162 -76.15747c-0.5144043 -16.295288 -72.72833 -9.092743 -60.72177 -21.614197z" fill-rule="evenodd"/><path fill="#ffbc00" d="m468.15515 122.47032c-29.499542 9.262466 -48.69464 110.46326 -49.380554 130.70341c-0.6859131 20.240143 38.578735 -14.923019 45.265076 -9.262466c6.686371 5.6605377 -27.102356 50.944443 -5.1469727 43.225723c21.955383 -7.7187195 135.33551 -62.093628 136.87927 -89.53807c1.5437622 -27.444443 -98.11725 -84.39107 -127.61682 -75.1286z" fill-rule="evenodd"/><path stroke="#000000" stroke-width="3.0" stroke-linejoin="round" stroke-linecap="butt" d="m468.15515 122.47032c-29.499542 9.262466 -48.69464 110.46326 -49.380554 130.70341c-0.6859131 20.240143 38.578735 -14.923019 45.265076 -9.262466c6.686371 5.6605377 -27.102356 50.944443 -5.1469727 43.225723c21.955383 -7.7187195 135.33551 -62.093628 136.87927 -89.53807c1.5437622 -27.444443 -98.11725 -84.39107 -127.61682 -75.1286z" fill-rule="evenodd"/></g></svg>